# xmcd
#
# Track frame offsets:
#	150
#	17747
#	36323
#	54257
#	70180
#	81685
#	99821
#	115902
#	130118
#	142081
#	155668
#	170523
#	186973
#	198856
#	211850
#	230327
#	246629
#	261146
#	277022
#	288165
#
# Disc length: 4091 seconds
#
# Revision: 0
# Processed by: cddbd v1.5.1PL2 Copyright (c) Steve Scherf et al.
# Submitted via: dBpowerAMP V4.0
#
DISCID=290ff914
DTITLE=Juice Newton - The Best of Juice Newton
DYEAR=2005
DGENRE=Country
TTITLE0=A Little Love
TTITLE1=Angel of the Morning
TTITLE2=Break it to Me Gently
TTITLE3=Cheap Love
TTITLE4=Crazy Little Thing Called Love
TTITLE5=Heart of the Night
TTITLE6=Hurt
TTITLE7=Love's Been a Little Hard
TTITLE8=Night Time Without You
TTITLE9=Old Flame
TTITLE10=Queen of Hearts
TTITLE11=Ride 'em Cowboy
TTITLE12=Stuck in the Middle
TTITLE13=Sunshine
TTITLE14=The Sweetest Thing
TTITLE15=Tell Her No
TTITLE16=Tell Me True
TTITLE17=What Can I Do With My Heart
TTITLE18=When Love Comes Around the Bend
TTITLE19=You Make Me Want to Make You Mine
EXTD=
EXTT0=
EXTT1=
EXTT2=
EXTT3=
EXTT4=
EXTT5=
EXTT6=
EXTT7=
EXTT8=
EXTT9=
EXTT10=
EXTT11=
EXTT12=
EXTT13=
EXTT14=
EXTT15=
EXTT16=
EXTT17=
EXTT18=
EXTT19=
PLAYORDER=
